<?xml version="1.0" encoding="UTF-8"?>
<svg version="1.1" xmlns="http://www.w3.org/2000/svg" width="858" height="138">
<path d="M0 0 C18.85985154 -0.81844639 36.843164 6.93481485 50.609375 19.47265625 C64.02488003 33.48747937 70.48430327 51.2894936 70.28515625 70.5625 C69.1037327 90.34597432 61.04484993 106.15730496 46.8984375 119.8046875 C30.82705164 133.1901097 12.34820829 136.1668603 -7.9296875 135.16015625 C-24.89893043 133.25777476 -39.4930087 123.11797247 -50.26953125 110.3984375 C-59.8958216 97.8322745 -64.52594148 83.99869722 -64.3046875 68.22265625 C-64.29381104 67.16578613 -64.28293457 66.10891602 -64.27172852 65.02001953 C-63.90581288 47.14400533 -57.36816532 32.09124705 -44.9296875 19.16015625 C-32.55760931 7.29134904 -16.87297701 1.40038878 0 0 Z " fill="#FEDD11" transform="translate(63.9296875,-0.16015625)"/>
<path d="M0 0 C4.29 0 8.58 0 13 0 C13.4439209 1.14065918 13.8878418 2.28131836 14.34521484 3.45654297 C15.99111877 7.68160693 17.64391648 11.90394531 19.29882812 16.12548828 C20.01458541 17.9541767 20.72846231 19.78360225 21.44042969 21.61376953 C22.46317862 24.24186393 23.49262532 26.86724704 24.5234375 29.4921875 C24.84122162 30.31306854 25.15900574 31.13394958 25.48641968 31.97970581 C25.7865799 32.74034332 26.08674011 33.50098083 26.39599609 34.28466797 C26.65802826 34.95529266 26.92006042 35.62591736 27.19003296 36.31686401 C27.98428185 38.20464652 27.98428185 38.20464652 30 40 C34.76984597 40.10023162 37.36249221 39.03019794 40.74609375 35.83984375 C41.99227181 34.55410449 43.22252204 33.25276186 44.4375 31.9375 C45.07365234 31.27427734 45.70980469 30.61105469 46.36523438 29.92773438 C47.92467612 28.29794187 49.46834939 26.65586432 51 25 C49.20407218 21.22652227 46.88530924 18.09854791 44.25 14.875 C43.83234375 14.33746094 43.4146875 13.79992187 42.984375 13.24609375 C40.00879634 9.60826739 37.5585043 8.07964575 33 7 C33 4.69 33 2.38 33 0 C41.91 0 50.82 0 60 0 C60 2.31 60 4.62 60 7 C58.68 7 57.36 7 56 7 C57.65 9.31 59.3 11.62 61 14 C61.969375 13.21625 62.93875 12.4325 63.9375 11.625 C64.48277344 11.18414062 65.02804687 10.74328125 65.58984375 10.2890625 C67.13266437 9.0333609 67.13266437 9.0333609 68 7 C66.68 7 65.36 7 64 7 C64 4.69 64 2.38 64 0 C71.26 0 78.52 0 86 0 C86 2.31 86 4.62 86 7 C85.13117188 7.37769531 84.26234375 7.75539063 83.3671875 8.14453125 C79.58974061 10.22607101 77.0656527 12.59102467 74.125 15.6875 C73.62742187 16.19861328 73.12984375 16.70972656 72.6171875 17.23632812 C71.40441824 18.48408112 70.20119281 19.74109864 69 21 C70.41009792 25.31551945 72.50942624 27.91862023 75.625 31.1875 C80 35.79022082 80 35.79022082 80 38 C82.65228812 39.07525194 85.28368454 40.09456151 88 41 C88 43.31 88 45.62 88 48 C79.09 48 70.18 48 61 48 C61 45.69 61 43.38 61 41 C62.32 41 63.64 41 65 41 C63.02 38.36 61.04 35.72 59 33 C54.9915966 35.0042017 53.58590343 36.49055963 51 40 C52.485 40.495 52.485 40.495 54 41 C54 43.31 54 45.62 54 48 C39.15 48 24.3 48 9 48 C9 45.69 9 43.38 9 41 C10.485 40.505 10.485 40.505 12 40 C12 37.69 12 35.38 12 33 C7.05 33 2.1 33 -3 33 C-3.33 34.98 -3.66 36.96 -4 39 C-2.68 39.66 -1.36 40.32 0 41 C0 43.31 0 45.62 0 48 C-6.27 48 -12.54 48 -19 48 C-19 45.69 -19 43.38 -19 41 C-18.36811768 40.908396 -17.73623535 40.81679199 -17.08520508 40.72241211 C-16.3970874 40.48401611 -15.70896973 40.24562012 -15 40 C-13.66201069 36.65134065 -13.66201069 36.65134065 -12.91552734 33.97705078 C-11.80433535 30.36375075 -10.45639712 26.85878282 -9.08203125 23.33984375 C-8.8181662 22.65991364 -8.55430115 21.97998352 -8.28244019 21.27944946 C-7.46108826 19.16469753 -6.63684891 17.05108524 -5.8125 14.9375 C-5.24784991 13.4851026 -4.6833952 12.03262923 -4.11914062 10.58007812 C-2.74834462 7.05250551 -1.3749091 3.52597141 0 0 Z M4 15 C2.68 18.63 1.36 22.26 0 26 C2.97 26 5.94 26 9 26 C7.68 22.37 6.36 18.74 5 15 C4.67 15 4.34 15 4 15 Z " fill="#243D31" transform="translate(215,45)"/>
<path d="M0 0 C1.68900111 0.7166978 3.36539689 1.46432716 5.0234375 2.25 C7.91103432 3.15834999 9.46910257 2.70838185 12.3828125 1.9921875 C14.27632985 1.87957167 16.17349336 1.81762624 18.0703125 1.8046875 C19.49923828 1.78341797 19.49923828 1.78341797 20.95703125 1.76171875 C23.3828125 1.9921875 23.3828125 1.9921875 25.3828125 3.9921875 C24.84709821 7.52790179 24.84709821 7.52790179 23.3828125 8.9921875 C20.7428125 8.9921875 18.1028125 8.9921875 15.3828125 8.9921875 C15.3828125 16.2521875 15.3828125 23.5121875 15.3828125 30.9921875 C18.0228125 30.9921875 20.6628125 30.9921875 23.3828125 30.9921875 C24.3828125 31.9921875 24.3828125 31.9921875 24.4453125 34.5546875 C24.4246875 35.3590625 24.4040625 36.1634375 24.3828125 36.9921875 C23.13886719 36.96898437 21.89492187 36.94578125 20.61328125 36.921875 C5.05883387 35.9086632 5.05883387 35.9086632 -8.6171875 41.5546875 C-9.2771875 42.3590625 -9.9371875 43.1634375 -10.6171875 43.9921875 C-11.6071875 44.3221875 -12.5971875 44.6521875 -13.6171875 44.9921875 C-14.1740625 45.8378125 -14.7309375 46.6834375 -15.3046875 47.5546875 C-17.6171875 49.9921875 -17.6171875 49.9921875 -21.3671875 50.8046875 C-26.25410543 50.50437411 -28.64295934 47.63987995 -31.80859375 44.171875 C-33.34886429 42.31556623 -34.79714937 40.42198283 -36.2421875 38.4921875 C-38.42404969 35.67261089 -38.42404969 35.67261089 -41.8671875 35.5546875 C-44.52179608 35.70105354 -44.52179608 35.70105354 -45.6171875 36.9921875 C-47.80358203 37.06477696 -49.99219139 37.07592533 -52.1796875 37.0546875 C-53.97599609 37.04115234 -53.97599609 37.04115234 -55.80859375 37.02734375 C-56.73542969 37.01574219 -57.66226563 37.00414062 -58.6171875 36.9921875 C-58.6599085 35.32606845 -58.65782582 33.65835865 -58.6171875 31.9921875 C-58.1221875 31.4971875 -58.1221875 31.4971875 -57.6171875 30.9921875 C-54.6471875 30.9921875 -51.6771875 30.9921875 -48.6171875 30.9921875 C-48.6171875 23.7321875 -48.6171875 16.4721875 -48.6171875 8.9921875 C-51.5871875 8.9921875 -54.5571875 8.9921875 -57.6171875 8.9921875 C-58.6171875 7.9921875 -58.6171875 7.9921875 -58.7421875 5.4921875 C-58.6171875 2.9921875 -58.6171875 2.9921875 -57.6171875 1.9921875 C-52.33346861 1.45140419 -48.00539014 1.12115839 -43.4296875 3.9921875 C-42.5325 4.9821875 -42.5325 4.9821875 -41.6171875 5.9921875 C-41.03453125 5.7034375 -40.451875 5.4146875 -39.8515625 5.1171875 C-33.72249776 2.34176196 -29.10828676 1.83978485 -22.43359375 2.12109375 C-19.45180535 1.984618 -17.97331177 1.42147509 -15.4296875 -0.0703125 C-10.16321964 -3.12160625 -5.51312982 -2.12296641 0 0 Z " fill="#303035" transform="translate(83.6171875,44.0078125)"/>
<path d="M0 0 C7.59 0 15.18 0 23 0 C24.92163201 5.12435203 26.68475027 10.02204309 28.1875 15.25 C28.53167969 16.43078125 28.87585938 17.6115625 29.23046875 18.828125 C30 22 30 22 30 26 C30.66 26 31.32 26 32 26 C32.10183594 25.04996094 32.20367188 24.09992188 32.30859375 23.12109375 C33.00229805 18.26516362 34.53930237 13.71117812 36.0625 9.0625 C37.031875 6.071875 38.00125 3.08125 39 0 C46.59 0 54.18 0 62 0 C62 2.31 62 4.62 62 7 C60.68 7.33 59.36 7.66 58 8 C58 18.56 58 29.12 58 40 C59.32 40.33 60.64 40.66 62 41 C62 43.31 62 45.62 62 48 C54.08 48 46.16 48 38 48 C38 45.69 38 43.38 38 41 C40.475 40.505 40.475 40.505 43 40 C43 32.41 43 24.82 43 17 C42.04287109 20.23103516 42.04287109 20.23103516 41.06640625 23.52734375 C40.44828072 25.6059435 39.82905334 27.68421198 39.2097168 29.76245117 C38.77887384 31.21035004 38.34918266 32.65859214 37.9206543 34.10717773 C37.30557722 36.18564051 36.68640959 38.26284595 36.06640625 40.33984375 C35.69459229 41.59144287 35.32277832 42.84304199 34.93969727 44.13256836 C34 47 34 47 33 48 C30.36 48 27.72 48 25 48 C20.545 32.655 20.545 32.655 16 17 C15.67 24.59 15.34 32.18 15 40 C16.98 40.33 18.96 40.66 21 41 C21 43.31 21 45.62 21 48 C14.07 48 7.14 48 0 48 C0 45.69 0 43.38 0 41 C2.475 40.505 2.475 40.505 5 40 C5 29.44 5 18.88 5 8 C3.35 7.67 1.7 7.34 0 7 C0 4.69 0 2.38 0 0 Z " fill="#243D31" transform="translate(644,45)"/>
<path d="M0 0 C5.26524445 -0.09943082 10.52993343 -0.17173199 15.79589844 -0.21972656 C17.58440684 -0.23974959 19.37285054 -0.26697654 21.16113281 -0.30175781 C23.74300162 -0.35068955 26.3239995 -0.37306165 28.90625 -0.390625 C30.09112 -0.42159271 30.09112 -0.42159271 31.29992676 -0.45318604 C36.97788004 -0.45544265 41.24840502 0.84029816 46 4 C48.99948619 7.37442197 49.55238133 10.49742062 49.33984375 15.01171875 C48.7419467 18.50976009 47.36750811 20.39574108 45 23 C42.42591367 24.58178588 39.79070216 25.84849668 37 27 C38.69451488 28.97190877 40.40390699 30.92650869 42.125 32.875 C42.599375 33.43058594 43.07375 33.98617187 43.5625 34.55859375 C46.74643197 38.12976069 49.19639228 39.87393172 54 41 C54 43.31 54 45.62 54 48 C48.27135325 49.26212535 42.58978283 50.22783708 37 48 C31.30725011 43.02804078 27.33506808 36.36520737 23.44775391 29.94946289 C22.0697082 27.70485336 22.0697082 27.70485336 19 27 C19.33 31.29 19.66 35.58 20 40 C21.65 40.33 23.3 40.66 25 41 C25 43.31 25 45.62 25 48 C16.75 48 8.5 48 0 48 C0 45.69 0 43.38 0 41 C2.97 40.505 2.97 40.505 6 40 C5.67 29.44 5.34 18.88 5 8 C3.35 7.67 1.7 7.34 0 7 C0 4.69 0 2.38 0 0 Z M19 8 C19 11.96 19 15.92 19 20 C26.79440824 20.46621503 26.79440824 20.46621503 34 18 C36.20376008 15.32314652 36.20376008 15.32314652 35.9375 13 C34.48167079 9.89423101 33.20788832 9.28315533 30 8 C26.29338371 7.75497754 22.72291042 7.86543697 19 8 Z " fill="#243D31" transform="translate(790,45)"/>
<path d="M0 0 C5.01705721 -0.07442006 10.03378972 -0.12872908 15.05126953 -0.16479492 C16.75640463 -0.17983738 18.46150132 -0.20027653 20.16650391 -0.22631836 C22.62412012 -0.26290284 25.08122269 -0.27977173 27.5390625 -0.29296875 C28.29555084 -0.30845261 29.05203918 -0.32393646 29.83145142 -0.33988953 C35.82022833 -0.3417735 39.92037533 1.02982926 44.375 5.25 C46.49870015 8.8439541 46.57821503 10.88021793 46 15 C42.92307692 20.53846154 42.92307692 20.53846154 40 22 C40.94875 22.7425 41.8975 23.485 42.875 24.25 C46.63221911 27.42236897 47.82206991 29.39862922 48.375 34.375 C47.91527362 38.81902171 46.96532771 40.66400633 44 44 C38.57796415 47.6447847 33.76959186 48.56841715 27.34375 48.390625 C26.16214294 48.38213531 26.16214294 48.38213531 24.95666504 48.37347412 C22.47045966 48.35129902 19.98576072 48.30114337 17.5 48.25 C15.80210433 48.22991039 14.10418579 48.21166396 12.40625 48.1953125 C8.27026361 48.1514969 4.1353861 48.08260605 0 48 C0 45.69 0 43.38 0 41 C2.475 40.505 2.475 40.505 5 40 C5 29.44 5 18.88 5 8 C3.35 7.67 1.7 7.34 0 7 C0 4.69 0 2.38 0 0 Z M19 8 C19 11.63 19 15.26 19 19 C25.17734046 19.32324454 25.17734046 19.32324454 31.0625 17.8125 C33.20639825 16.13557532 33.20639825 16.13557532 33.625 13.5 C33.20639825 10.86442468 33.20639825 10.86442468 31.0625 9.1875 C26.85261583 7.55509593 23.5020651 7.798415 19 8 Z M19 26 C18.97314062 28.14576637 18.95366912 30.29162645 18.9375 32.4375 C18.92589844 33.63246094 18.91429687 34.82742187 18.90234375 36.05859375 C18.66098208 38.88873341 18.66098208 38.88873341 20 40 C25.39124832 40.35941655 28.54696778 40.37350926 33 37 C34.41577477 35.81575674 34.41577477 35.81575674 34.0625 32.4375 C34.041875 31.303125 34.02125 30.16875 34 29 C28.8531808 25.83272665 24.841744 25.64949536 19 26 Z " fill="#243D31" transform="translate(304,45)"/>
<path d="M0 0 C4.83799361 -0.09951569 9.67538025 -0.17177037 14.51416016 -0.21972656 C16.1571695 -0.23973571 17.80010859 -0.26695213 19.44287109 -0.30175781 C21.81625788 -0.35075305 24.18869649 -0.37307504 26.5625 -0.390625 C27.64893799 -0.42159271 27.64893799 -0.42159271 28.75732422 -0.45318604 C35.10216271 -0.45592403 40.20786422 1.59057009 45.0234375 5.74609375 C45.69246094 6.58333984 45.69246094 6.58333984 46.375 7.4375 C46.83648437 7.99308594 47.29796875 8.54867187 47.7734375 9.12109375 C52.15241849 15.82902323 51.6467264 23.30477446 51 31 C49.38549904 37.30332113 45.32645481 41.47459506 40 45 C32.14828329 49.03161265 23.4991712 48.34288246 14.9375 48.1875 C13.48503995 48.17242256 12.03256473 48.15873958 10.58007812 48.14648438 C7.05306543 48.11372861 3.52663215 48.06211664 0 48 C0 45.69 0 43.38 0 41 C2.97 40.505 2.97 40.505 6 40 C5.67 29.44 5.34 18.88 5 8 C3.35 7.67 1.7 7.34 0 7 C0 4.69 0 2.38 0 0 Z M19 8 C18.97534496 12.39656173 18.95716158 16.7930872 18.94506836 21.18969727 C18.94002879 22.68644918 18.93319713 24.18319616 18.92456055 25.67993164 C18.91247841 27.82699807 18.90676809 29.97399962 18.90234375 32.12109375 C18.89710693 33.4145874 18.89187012 34.70808105 18.88647461 36.04077148 C18.66003068 38.88652404 18.66003068 38.88652404 20 40 C25.17021481 39.95727095 29.96661968 39.44023616 34 36 C38.20207675 30.49383046 37.74760149 23.60241317 37 17 C35.21864109 13.02619936 33.80756513 11.55061259 30.25 9.125 C27.33613364 8.11635395 25.77763056 7.87448832 22.796875 7.9296875 C21.54390625 7.95289063 20.2909375 7.97609375 19 8 Z " fill="#243D31" transform="translate(462,45)"/>
<path d="M0 0 C4.83799361 -0.09951569 9.67538025 -0.17177037 14.51416016 -0.21972656 C16.1571695 -0.23973571 17.80010859 -0.26695213 19.44287109 -0.30175781 C21.81625788 -0.35075305 24.18869649 -0.37307504 26.5625 -0.390625 C27.64893799 -0.42159271 27.64893799 -0.42159271 28.75732422 -0.45318604 C35.10216271 -0.45592403 40.20786422 1.59057009 45.0234375 5.74609375 C45.69246094 6.58333984 45.69246094 6.58333984 46.375 7.4375 C46.83648437 7.99308594 47.29796875 8.54867187 47.7734375 9.12109375 C52.15241849 15.82902323 51.6467264 23.30477446 51 31 C49.38549904 37.30332113 45.32645481 41.47459506 40 45 C32.14828329 49.03161265 23.4991712 48.34288246 14.9375 48.1875 C13.48503995 48.17242256 12.03256473 48.15873958 10.58007812 48.14648438 C7.05306543 48.11372861 3.52663215 48.06211664 0 48 C0 45.69 0 43.38 0 41 C2.97 40.505 2.97 40.505 6 40 C5.67 29.44 5.34 18.88 5 8 C3.35 7.67 1.7 7.34 0 7 C0 4.69 0 2.38 0 0 Z M19 8 C18.97534496 12.39656173 18.95716158 16.7930872 18.94506836 21.18969727 C18.94002879 22.68644918 18.93319713 24.18319616 18.92456055 25.67993164 C18.91247841 27.82699807 18.90676809 29.97399962 18.90234375 32.12109375 C18.89710693 33.4145874 18.89187012 34.70808105 18.88647461 36.04077148 C18.66003068 38.88652404 18.66003068 38.88652404 20 40 C25.17021481 39.95727095 29.96661968 39.44023616 34 36 C38.20207675 30.49383046 37.74760149 23.60241317 37 17 C35.21864109 13.02619936 33.80756513 11.55061259 30.25 9.125 C27.33613364 8.11635395 25.77763056 7.87448832 22.796875 7.9296875 C21.54390625 7.95289063 20.2909375 7.97609375 19 8 Z " fill="#243D31" transform="translate(407,45)"/>
<path d="M0 0 C4.29 0 8.58 0 13 0 C13.42821045 1.13542236 13.8564209 2.27084473 14.29760742 3.44067383 C15.8928821 7.65719101 17.51009914 11.86500325 19.1340332 16.07055664 C19.8333986 17.8908516 20.52681635 19.71344342 21.21411133 21.53833008 C22.20394576 24.16335669 23.21498128 26.77933913 24.23046875 29.39453125 C24.53276901 30.21025101 24.83506927 31.02597076 25.14653015 31.8664093 C26.90472108 36.55764308 26.90472108 36.55764308 30.7355957 39.6003418 C31.48284912 40.062229 32.23010254 40.52411621 33 41 C33 43.31 33 45.62 33 48 C25.08 48 17.16 48 9 48 C9 45.69 9 43.38 9 41 C10.485 40.505 10.485 40.505 12 40 C12 37.69 12 35.38 12 33 C7.05 33 2.1 33 -3 33 C-3.33 34.98 -3.66 36.96 -4 39 C-2.68 39.66 -1.36 40.32 0 41 C0 43.31 0 45.62 0 48 C-6.27 48 -12.54 48 -19 48 C-19 45.69 -19 43.38 -19 41 C-18.36811768 40.908396 -17.73623535 40.81679199 -17.08520508 40.72241211 C-16.3970874 40.48401611 -15.70896973 40.24562012 -15 40 C-13.66201069 36.65134065 -13.66201069 36.65134065 -12.91552734 33.97705078 C-11.80433535 30.36375075 -10.45639712 26.85878282 -9.08203125 23.33984375 C-8.8181662 22.65991364 -8.55430115 21.97998352 -8.28244019 21.27944946 C-7.46108826 19.16469753 -6.63684891 17.05108524 -5.8125 14.9375 C-5.24784991 13.4851026 -4.6833952 12.03262923 -4.11914062 10.58007812 C-2.74834462 7.05250551 -1.3749091 3.52597141 0 0 Z M4 15 C2.68 18.63 1.36 22.26 0 26 C2.97 26 5.94 26 9 26 C7.68 22.37 6.36 18.74 5 15 C4.67 15 4.34 15 4 15 Z " fill="#243D31" transform="translate(727,45)"/>
<path d="M0 0 C7.92 0 15.84 0 24 0 C24 2.31 24 4.62 24 7 C23.360625 7.103125 22.72125 7.20625 22.0625 7.3125 C21.0415625 7.6528125 21.0415625 7.6528125 20 8 C18.64143191 12.07570427 18.81577332 15.85659715 18.8125 20.125 C18.79413086 21.35089844 18.79413086 21.35089844 18.77539062 22.6015625 C18.74953004 31.00297009 18.74953004 31.00297009 21 39 C23.67876863 40.79278108 24.7803588 41.01344742 28.0625 40.8125 C31.10460621 39.97106637 32.24999713 39.5789516 34 37 C34.89211699 33.44418347 35.11808967 30.13805172 35.09765625 26.48046875 C35.09443359 25.45888672 35.09121094 24.43730469 35.08789062 23.38476562 C35.07951172 22.32966797 35.07113281 21.27457031 35.0625 20.1875 C35.05798828 19.11306641 35.05347656 18.03863281 35.04882812 16.93164062 C35.03707729 14.28770317 35.02064787 11.64388048 35 9 C33.35 8.34 31.7 7.68 30 7 C30 4.69 30 2.38 30 0 C36.93 0 43.86 0 51 0 C51 2.31 51 4.62 51 7 C49.35 7.33 47.7 7.66 46 8 C45.98541748 8.74572266 45.97083496 9.49144531 45.95581055 10.25976562 C45.88084662 13.6736704 45.78434562 17.08664869 45.6875 20.5 C45.66494141 21.67304687 45.64238281 22.84609375 45.61914062 24.0546875 C45.18242726 38.18832008 45.18242726 38.18832008 40.28125 44.05859375 C39.6934375 44.51363281 39.105625 44.96867187 38.5 45.4375 C37.9121875 45.91058594 37.324375 46.38367188 36.71875 46.87109375 C31.34217534 50.40252574 24.13059926 49.59744489 18 49 C12.10425798 46.91173718 9.11259143 43.35337452 6 38 C5.45410156 34.65673828 5.45410156 34.65673828 5.390625 31.0703125 C5.35839844 29.78125 5.32617188 28.4921875 5.29296875 27.1640625 C5.2782277 25.81771285 5.26391 24.4713585 5.25 23.125 C5.22181288 21.75517097 5.19188163 20.38537665 5.16015625 19.015625 C5.08962243 15.67702398 5.03684015 12.33911485 5 9 C2.525 8.01 2.525 8.01 0 7 C0 4.69 0 2.38 0 0 Z " fill="#243D31" transform="translate(590,45)"/>
<path d="M0 0 C7.92 0 15.84 0 24 0 C24 2.31 24 4.62 24 7 C23.360625 7.103125 22.72125 7.20625 22.0625 7.3125 C21.0415625 7.6528125 21.0415625 7.6528125 20 8 C18.64143191 12.07570427 18.81577332 15.85659715 18.8125 20.125 C18.79413086 21.35089844 18.79413086 21.35089844 18.77539062 22.6015625 C18.74953004 31.00297009 18.74953004 31.00297009 21 39 C23.67876863 40.79278108 24.7803588 41.01344742 28.0625 40.8125 C31.10460621 39.97106637 32.24999713 39.5789516 34 37 C34.89211699 33.44418347 35.11808967 30.13805172 35.09765625 26.48046875 C35.09443359 25.45888672 35.09121094 24.43730469 35.08789062 23.38476562 C35.07951172 22.32966797 35.07113281 21.27457031 35.0625 20.1875 C35.05798828 19.11306641 35.05347656 18.03863281 35.04882812 16.93164062 C35.03707729 14.28770317 35.02064787 11.64388048 35 9 C33.35 8.34 31.7 7.68 30 7 C30 4.69 30 2.38 30 0 C36.93 0 43.86 0 51 0 C51 2.31 51 4.62 51 7 C49.35 7.33 47.7 7.66 46 8 C45.98541748 8.74572266 45.97083496 9.49144531 45.95581055 10.25976562 C45.88084662 13.6736704 45.78434562 17.08664869 45.6875 20.5 C45.66494141 21.67304687 45.64238281 22.84609375 45.61914062 24.0546875 C45.18242726 38.18832008 45.18242726 38.18832008 40.28125 44.05859375 C39.6934375 44.51363281 39.105625 44.96867187 38.5 45.4375 C37.9121875 45.91058594 37.324375 46.38367188 36.71875 46.87109375 C31.34217534 50.40252574 24.13059926 49.59744489 18 49 C12.10425798 46.91173718 9.11259143 43.35337452 6 38 C5.45410156 34.65673828 5.45410156 34.65673828 5.390625 31.0703125 C5.35839844 29.78125 5.32617188 28.4921875 5.29296875 27.1640625 C5.2782277 25.81771285 5.26391 24.4713585 5.25 23.125 C5.22181288 21.75517097 5.19188163 20.38537665 5.16015625 19.015625 C5.08962243 15.67702398 5.03684015 12.33911485 5 9 C2.525 8.01 2.525 8.01 0 7 C0 4.69 0 2.38 0 0 Z " fill="#243D31" transform="translate(354,45)"/>
<path d="M0 0 C8.25 0 16.5 0 25 0 C25 2.31 25 4.62 25 7 C23.35 7 21.7 7 20 7 C21.98 10.63 23.96 14.26 26 18 C26.66 18 27.32 18 28 18 C29.98 14.37 31.96 10.74 34 7 C32.68 7 31.36 7 30 7 C30 4.69 30 2.38 30 0 C36.6 0 43.2 0 50 0 C50 2.31 50 4.62 50 7 C47.8203125 8.50390625 47.8203125 8.50390625 45 10 C43.08001514 12.16556432 41.49246612 14.5409791 39.875 16.9375 C39.01849256 18.17596345 38.16172834 19.41424936 37.3046875 20.65234375 C36.90838135 21.23838379 36.5120752 21.82442383 36.10375977 22.42822266 C35 24 35 24 33.20703125 26.08203125 C31.54784408 28.71847429 31.70243925 30.66829913 31.8125 33.75 C31.83957031 34.73484375 31.86664062 35.7196875 31.89453125 36.734375 C31.94673828 37.85585937 31.94673828 37.85585937 32 39 C33.65 39.66 35.3 40.32 37 41 C37 43.31 37 45.62 37 48 C29.08 48 21.16 48 13 48 C13 45.69 13 43.38 13 41 C14.98 40.505 14.98 40.505 17 40 C18.36401611 32.72524742 17.2977543 27.70300531 13.26098633 21.62890625 C7.69975741 13.18573818 7.69975741 13.18573818 0 7 C0 4.69 0 2.38 0 0 Z " fill="#243D31" transform="translate(516,45)"/>
<path d="M0 0 C12.87 0 25.74 0 39 0 C44 12 44 12 45 17 C42.69 17.66 40.38 18.32 38 19 C37.54109375 18.36191406 37.0821875 17.72382812 36.609375 17.06640625 C35.99578125 16.24011719 35.3821875 15.41382813 34.75 14.5625 C34.14671875 13.73878906 33.5434375 12.91507813 32.921875 12.06640625 C30.98829257 9.61088093 30.98829257 9.61088093 27 9 C27 19.23 27 29.46 27 40 C28.65 40.66 30.3 41.32 32 42 C32 44.31 32 46.62 32 49 C24.08 49 16.16 49 8 49 C8 46.69 8 44.38 8 42 C9.98 41.505 9.98 41.505 12 41 C12.33 30.11 12.66 19.22 13 8 C6.78105209 11.04753934 6.78105209 11.04753934 3.5625 15.75 C3.046875 16.8225 2.53125 17.895 2 19 C-0.31 18.34 -2.62 17.68 -5 17 C-4.73733305 15.66503388 -4.46427347 14.33211295 -4.1875 13 C-4.03667969 12.2575 -3.88585937 11.515 -3.73046875 10.75 C-2.7567302 7.08416076 -1.3317971 3.55145894 0 0 Z " fill="#243D31" transform="translate(151,44)"/>
<path d="M0 0 C7.92 0 15.84 0 24 0 C24 2.31 24 4.62 24 7 C22.68 7.33 21.36 7.66 20 8 C20 18.56 20 29.12 20 40 C21.32 40.33 22.64 40.66 24 41 C24 43.31 24 45.62 24 48 C16.08 48 8.16 48 0 48 C0 45.69 0 43.38 0 41 C2.97 40.505 2.97 40.505 6 40 C5.67 29.77 5.34 19.54 5 9 C2.525 8.01 2.525 8.01 0 7 C0 4.69 0 2.38 0 0 Z " fill="#243D31" transform="translate(761,45)"/>
<path d="M0 0 C0.66 2.97 1.32 5.94 2 9 C6.37164968 9.77146759 9.68903724 10.00514676 14 9 C15.70034041 10.92745091 17.38490979 12.86541739 19.0625 14.8125 C19.54783203 15.35970703 20.03316406 15.90691406 20.53320312 16.47070312 C21.76836309 17.91610309 22.89295679 19.45427799 24 21 C23.505 22.485 23.505 22.485 23 24 C20.53199953 22.84826645 18.95216435 21.95216435 17 20 C15.68 20 14.36 20 13 20 C13.53069061 23.82097239 14.49701566 26.06171403 17 29 C15.1875 29.6875 15.1875 29.6875 13 30 C11.97895449 29.02149805 10.9793879 28.02019573 10 27 C8.68 27 7.36 27 6 27 C6.58803797 30.02419525 7.22678118 33.01758453 8 36 C3.20733318 34.21537699 0.44148118 30.11041769 -2.66992188 26.25585938 C-6.58228831 21.71264461 -7.41934347 21.94009379 -14 21 C-14 15.72 -14 10.44 -14 5 C-1.125 0 -1.125 0 0 0 Z " fill="#FADA11" transform="translate(55,52)"/>
<path d="M0 0 C0 6.6 0 13.2 0 20 C-2.31 20 -4.62 20 -7 20 C-7.37125 19.175 -7.7425 18.35 -8.125 17.5 C-9.6838438 14.59015823 -11.17545938 12.50874679 -13.25 10 C-15.58332125 7.01150972 -16.01625798 6.45522347 -15.875 2.5 C-15.441875 1.2625 -15.441875 1.2625 -15 0 C-20.3503559 0.57021934 -25.67787852 1.20734361 -31 2 C-21.4319085 -8.30637016 -11.70530634 -4.82693045 0 0 Z " fill="#F8D812" transform="translate(92,54)"/>
</svg>
