<?xml version="1.0" standalone="no"?>
<!DOCTYPE svg PUBLIC "-//W3C//DTD SVG 20010904//EN"
 "http://www.w3.org/TR/2001/REC-SVG-20010904/DTD/svg10.dtd">
<svg version="1.0" xmlns="http://www.w3.org/2000/svg"
 width="1080.000000pt" height="1080.000000pt" viewBox="0 0 1080.000000 1080.000000"
 preserveAspectRatio="xMidYMid meet">

<g transform="translate(0.000000,1080.000000) scale(0.100000,-0.100000)"
fill="#000000" stroke="none">
<path d="M3539 6157 c-100 -28 -181 -97 -223 -186 -16 -36 -21 -66 -21 -136 0
-78 4 -97 28 -147 78 -159 272 -228 434 -154 72 33 134 94 166 164 31 67 31
207 0 274 -65 141 -240 226 -384 185z m161 -202 c23 -8 62 -15 86 -15 32 0 44
-4 44 -15 0 -9 -9 -15 -25 -15 -24 0 -25 -3 -25 -55 0 -52 1 -55 26 -55 19 0
25 -4 22 -17 -3 -15 -14 -18 -70 -18 -59 0 -70 -3 -106 -32 -23 -18 -48 -33
-56 -33 -8 0 -32 18 -53 40 -36 38 -40 40 -69 28 -35 -13 -64 -6 -64 17 0 9 9
15 25 15 24 0 25 3 25 55 0 52 -1 55 -25 55 -16 0 -25 6 -25 15 0 17 65 22 75
6 3 -6 20 -4 42 5 20 9 45 13 57 10 12 -2 32 2 46 9 14 8 26 14 26 15 1 0 21
-7 44 -15z"/>
<path d="M3630 5915 c-24 -14 -24 -14 13 -8 34 5 38 4 36 -13 -5 -27 32 -84
53 -84 15 0 18 8 18 44 0 42 -2 45 -40 60 -48 19 -48 19 -80 1z"/>
<path d="M3523 5895 c-28 -12 -33 -19 -33 -50 0 -26 4 -35 17 -35 9 0 34 -16
55 -36 28 -28 36 -32 32 -17 -6 22 10 40 21 23 3 -5 10 -10 16 -10 5 0 4 9 -3
20 -16 25 -3 38 22 22 31 -19 33 -14 10 17 -15 22 -30 31 -57 33 -28 2 -38 8
-43 25 -5 20 -7 21 -37 8z"/>
<path d="M4180 5930 c0 -28 3 -30 35 -30 l35 0 0 -95 0 -95 30 0 30 0 0 94 0
95 33 3 c27 2 32 7 32 28 0 25 -1 25 -97 28 l-98 3 0 -31z"/>
<path d="M4449 5933 c-47 -123 -79 -209 -79 -215 0 -5 13 -8 29 -8 21 0 32 6
36 20 5 16 15 20 52 20 36 0 46 -4 50 -20 5 -18 14 -20 74 -20 67 0 69 1 93
36 l24 36 24 -36 c19 -29 29 -36 56 -36 17 0 32 2 32 5 0 3 -16 29 -35 58 -19
28 -35 58 -35 65 0 7 13 32 28 55 47 69 47 67 8 67 -28 0 -38 -6 -53 -30 -9
-16 -21 -30 -25 -30 -4 0 -15 14 -25 30 -14 24 -24 30 -50 30 -18 0 -33 -2
-33 -5 0 -3 16 -30 36 -60 l36 -54 -37 -60 c-21 -34 -41 -61 -44 -61 -3 0 -26
53 -51 118 -41 107 -47 117 -73 120 -22 3 -29 -2 -38 -25z m55 -100 c6 -20 4
-23 -17 -23 -24 0 -25 1 -14 35 11 36 17 34 31 -12z"/>
<path d="M4880 5835 l0 -125 73 0 c61 0 77 4 96 21 19 18 22 28 17 63 -3 22
-6 60 -5 83 0 65 -24 83 -111 83 l-70 0 0 -125z m115 50 c0 -14 -8 -21 -27
-23 -24 -3 -28 0 -28 23 0 23 4 26 28 23 19 -2 27 -9 27 -23z m10 -100 c0 -15
-8 -21 -32 -23 -30 -3 -33 -1 -33 23 0 24 3 26 33 23 24 -2 32 -8 32 -23z"/>
<path d="M5120 5862 c0 -89 2 -100 23 -119 44 -41 119 -42 157 -1 17 19 20 36
20 120 l0 98 -30 0 -29 0 -3 -86 c-2 -70 -6 -89 -20 -98 -13 -8 -23 -8 -35 0
-15 9 -19 28 -21 98 l-3 86 -29 0 -30 0 0 -98z"/>
<path d="M5370 5835 l0 -125 55 0 c31 0 71 6 90 14 40 17 75 68 75 111 0 43
-35 94 -75 111 -19 8 -59 14 -90 14 l-55 0 0 -125z m135 45 c36 -40 9 -110
-42 -110 -22 0 -23 3 -23 65 0 62 1 65 23 65 13 0 32 -9 42 -20z"/>
<path d="M5620 5835 l0 -125 55 0 c31 0 71 6 90 14 40 17 75 68 75 111 0 43
-35 94 -75 111 -19 8 -59 14 -90 14 l-55 0 0 -125z m135 45 c36 -40 9 -110
-42 -110 -22 0 -23 3 -23 65 0 62 1 65 23 65 13 0 32 -9 42 -20z"/>
<path d="M5850 5953 c0 -3 14 -31 32 -62 23 -40 34 -74 38 -116 5 -59 5 -60
38 -63 l32 -3 0 58 c0 33 4 63 8 69 5 5 23 35 40 67 l32 57 -35 0 c-31 0 -37
-5 -58 -46 l-24 -47 -19 47 c-17 41 -22 46 -51 46 -18 0 -33 -3 -33 -7z"/>
<path d="M6210 5862 c0 -89 2 -100 23 -119 44 -41 119 -42 157 -1 17 19 20 36
20 120 l0 98 -30 0 -29 0 -3 -86 c-2 -70 -6 -89 -20 -98 -13 -8 -23 -8 -35 0
-15 9 -19 28 -21 98 l-3 86 -29 0 -30 0 0 -98z"/>
<path d="M6477 5913 c-4 -26 -9 -83 -13 -125 l-7 -78 30 0 c30 0 31 1 38 68 4
37 9 63 11 57 2 -5 10 -36 19 -68 15 -54 19 -58 43 -55 22 3 29 11 42 55 19
63 30 76 30 36 0 -17 3 -45 6 -62 6 -26 11 -31 36 -31 l29 0 -6 58 c-4 31 -9
86 -13 122 l-7 65 -36 3 -36 3 -18 -68 c-10 -37 -21 -72 -25 -76 -4 -4 -16 25
-27 65 -19 72 -20 73 -55 76 -35 3 -35 3 -41 -45z"/>
<path d="M6849 5933 c-47 -123 -79 -209 -79 -215 0 -5 13 -8 29 -8 21 0 32 6
36 20 5 16 15 20 52 20 36 0 46 -4 50 -20 4 -15 14 -20 39 -20 l33 0 -23 63
c-65 171 -71 182 -99 185 -22 3 -29 -2 -38 -25z m55 -100 c6 -20 4 -23 -17
-23 -24 0 -25 1 -14 35 11 36 17 34 31 -12z"/>
<path d="M7040 5835 l0 -125 30 0 30 0 0 125 0 125 -30 0 -30 0 0 -125z"/>
<path d="M7160 5835 l0 -125 30 0 c28 0 30 2 30 40 0 29 4 40 15 40 8 0 24
-18 35 -40 18 -35 25 -40 55 -40 l35 0 -24 48 c-24 47 -24 48 -5 71 27 32 24
77 -6 106 -21 22 -33 25 -95 25 l-70 0 0 -125z m119 57 c13 -25 -5 -52 -34
-52 -22 0 -25 5 -25 35 0 31 3 35 25 35 13 0 29 -8 34 -18z"/>
</g>
</svg>
