<?xml version="1.0" standalone="no"?>
<!DOCTYPE svg PUBLIC "-//W3C//DTD SVG 20010904//EN"
 "http://www.w3.org/TR/2001/REC-SVG-20010904/DTD/svg10.dtd">
<svg version="1.0" xmlns="http://www.w3.org/2000/svg"
 width="1080.000000pt" height="1080.000000pt" viewBox="0 0 1080.000000 1080.000000"
 preserveAspectRatio="xMidYMid meet">

<g transform="translate(0.000000,1080.000000) scale(0.100000,-0.100000)"
fill="#000000" stroke="none">
<path d="M3587 5984 c-17 -9 -39 -13 -53 -10 -13 4 -42 -1 -64 -10 -31 -13
-44 -14 -53 -5 -6 6 -31 11 -55 11 -36 0 -43 -3 -40 -17 2 -11 14 -19 31 -21
27 -3 27 -5 27 -73 l0 -69 -30 0 c-21 0 -30 -5 -30 -16 0 -15 9 -16 65 -11
l64 6 36 -43 c49 -60 65 -62 122 -16 60 47 78 52 164 51 55 -1 69 2 69 14 0
10 -10 15 -30 15 l-30 0 0 69 c0 68 0 70 27 73 17 2 29 10 31 21 3 15 -4 17
-55 16 -35 -1 -73 5 -95 15 -46 20 -65 20 -101 0z m120 -49 c34 -14 34 -15 31
-72 -2 -42 -7 -59 -18 -61 -22 -4 -80 81 -73 106 7 28 -6 32 -52 17 -52 -18
-56 -11 -8 14 40 21 61 21 120 -4z m-184 -53 c7 -9 22 -11 43 -8 27 6 35 2 58
-28 38 -50 34 -75 -6 -39 -14 12 -21 14 -30 5 -9 -9 -7 -17 7 -32 24 -26 11
-39 -15 -15 -16 14 -23 16 -32 7 -10 -10 -10 -17 0 -32 22 -36 -6 -21 -46 25
-23 27 -48 45 -61 45 -18 0 -21 6 -21 45 0 44 1 46 43 64 42 18 42 18 45 -3 2
-12 9 -27 15 -34z"/>
<path d="M4180 5930 c0 -28 3 -30 35 -30 l35 0 0 -95 0 -95 30 0 30 0 0 94 0
95 33 3 c27 2 32 7 32 28 0 25 -1 25 -97 28 l-98 3 0 -31z"/>
<path d="M4449 5933 c-47 -123 -79 -209 -79 -215 0 -5 13 -8 29 -8 21 0 32 6
36 20 5 16 15 20 52 20 36 0 46 -4 50 -20 5 -18 14 -20 74 -20 67 0 69 1 93
36 l24 36 24 -36 c19 -29 29 -36 56 -36 17 0 32 2 32 5 0 3 -16 29 -35 58 -19
28 -35 58 -35 65 0 7 13 32 28 55 47 69 47 67 8 67 -28 0 -38 -6 -53 -30 -9
-16 -21 -30 -25 -30 -4 0 -15 14 -25 30 -14 24 -24 30 -50 30 -18 0 -33 -2
-33 -5 0 -3 16 -30 36 -60 l36 -54 -37 -60 c-21 -34 -41 -61 -44 -61 -3 0 -26
53 -51 118 -41 107 -47 117 -73 120 -22 3 -29 -2 -38 -25z m55 -100 c6 -20 4
-23 -17 -23 -24 0 -25 1 -14 35 11 36 17 34 31 -12z"/>
<path d="M4880 5835 l0 -125 73 0 c61 0 77 4 96 21 19 18 22 28 17 63 -3 22
-6 60 -5 83 0 65 -24 83 -111 83 l-70 0 0 -125z m115 50 c0 -14 -8 -21 -27
-23 -24 -3 -28 0 -28 23 0 23 4 26 28 23 19 -2 27 -9 27 -23z m10 -100 c0 -15
-8 -21 -32 -23 -30 -3 -33 -1 -33 23 0 24 3 26 33 23 24 -2 32 -8 32 -23z"/>
<path d="M5120 5862 c0 -89 2 -100 23 -119 44 -41 119 -42 157 -1 17 19 20 36
20 120 l0 98 -30 0 -29 0 -3 -86 c-2 -70 -6 -89 -20 -98 -13 -8 -23 -8 -35 0
-15 9 -19 28 -21 98 l-3 86 -29 0 -30 0 0 -98z"/>
<path d="M5370 5835 l0 -125 55 0 c31 0 71 6 90 14 40 17 75 68 75 111 0 43
-35 94 -75 111 -19 8 -59 14 -90 14 l-55 0 0 -125z m135 45 c36 -40 9 -110
-42 -110 -22 0 -23 3 -23 65 0 62 1 65 23 65 13 0 32 -9 42 -20z"/>
<path d="M5620 5835 l0 -125 55 0 c31 0 71 6 90 14 40 17 75 68 75 111 0 43
-35 94 -75 111 -19 8 -59 14 -90 14 l-55 0 0 -125z m135 45 c36 -40 9 -110
-42 -110 -22 0 -23 3 -23 65 0 62 1 65 23 65 13 0 32 -9 42 -20z"/>
<path d="M5850 5953 c0 -3 14 -31 32 -62 23 -40 34 -74 38 -116 5 -59 5 -60
38 -63 l32 -3 0 58 c0 33 4 63 8 69 5 5 23 35 40 67 l32 57 -35 0 c-31 0 -37
-5 -58 -46 l-24 -47 -19 47 c-17 41 -22 46 -51 46 -18 0 -33 -3 -33 -7z"/>
<path d="M6210 5862 c0 -89 2 -100 23 -119 44 -41 119 -42 157 -1 17 19 20 36
20 120 l0 98 -30 0 -29 0 -3 -86 c-2 -70 -6 -89 -20 -98 -13 -8 -23 -8 -35 0
-15 9 -19 28 -21 98 l-3 86 -29 0 -30 0 0 -98z"/>
<path d="M6477 5913 c-4 -26 -9 -83 -13 -125 l-7 -78 30 0 c30 0 31 1 38 68 4
37 9 63 11 57 2 -5 10 -36 19 -68 15 -54 19 -58 43 -55 22 3 29 11 42 55 19
63 30 76 30 36 0 -17 3 -45 6 -62 6 -26 11 -31 36 -31 l29 0 -6 58 c-4 31 -9
86 -13 122 l-7 65 -36 3 -36 3 -18 -68 c-10 -37 -21 -72 -25 -76 -4 -4 -16 25
-27 65 -19 72 -20 73 -55 76 -35 3 -35 3 -41 -45z"/>
<path d="M6849 5933 c-47 -123 -79 -209 -79 -215 0 -5 13 -8 29 -8 21 0 32 6
36 20 5 16 15 20 52 20 36 0 46 -4 50 -20 4 -15 14 -20 39 -20 l33 0 -23 63
c-65 171 -71 182 -99 185 -22 3 -29 -2 -38 -25z m55 -100 c6 -20 4 -23 -17
-23 -24 0 -25 1 -14 35 11 36 17 34 31 -12z"/>
<path d="M7040 5835 l0 -125 30 0 30 0 0 125 0 125 -30 0 -30 0 0 -125z"/>
<path d="M7160 5835 l0 -125 30 0 c28 0 30 2 30 40 0 29 4 40 15 40 8 0 24
-18 35 -40 18 -35 25 -40 55 -40 l35 0 -24 48 c-24 47 -24 48 -5 71 27 32 24
77 -6 106 -21 22 -33 25 -95 25 l-70 0 0 -125z m119 57 c13 -25 -5 -52 -34
-52 -22 0 -25 5 -25 35 0 31 3 35 25 35 13 0 29 -8 34 -18z"/>
</g>
</svg>
