<svg width="260" height="33" viewBox="0 0 260 33" xmlns="http://www.w3.org/2000/svg">
<ns0:circle xmlns:ns0="http://www.w3.org/2000/svg" cx="16" cy="16.2109" r="16" fill="#FFDE11" />

<ns0:g xmlns:ns0="http://www.w3.org/2000/svg" clip-path="url(#clip0_14_85)">
<ns0:path d="M22.9084 18.1611L18.6084 18.9828" stroke="#272937" stroke-width="1.5" stroke-linecap="round" stroke-linejoin="round" />
<ns0:path d="M18.0134 13.2759L15.1234 14.2309C14.8998 14.3045 14.6569 14.2933 14.441 14.1994C14.2251 14.1055 14.0512 13.9355 13.9526 13.7217C13.8463 13.4935 13.8328 13.233 13.9151 12.995C13.9973 12.7571 14.1689 12.5605 14.3934 12.4467L17.1926 11.0392C17.4312 10.9189 17.6919 10.8488 17.9587 10.8334C18.2254 10.8179 18.4925 10.8573 18.7434 10.9492L22.8876 12.4651" stroke="#272937" stroke-width="1.5" stroke-linecap="round" stroke-linejoin="round" />
<ns0:path d="M9.0708 18.1676H11.1083L14.035 21.4476C14.184 21.6204 14.3823 21.7434 14.6033 21.8001C14.8242 21.8569 15.0572 21.8448 15.2711 21.7653C15.4849 21.6859 15.6694 21.543 15.7997 21.3557C15.9299 21.1684 15.9998 20.9458 16 20.7177V20.2051L16.1458 20.2635C16.3552 20.3472 16.5818 20.3784 16.806 20.3542C17.0302 20.3301 17.2451 20.2514 17.4318 20.125C17.6185 19.9987 17.7714 19.8284 17.8772 19.6293C17.9829 19.4301 18.0382 19.2081 18.0383 18.9826H18.4458C18.6728 18.9825 18.8954 18.9192 19.0885 18.7997C19.2816 18.6803 19.4376 18.5095 19.5392 18.3064C19.6407 18.1033 19.6837 17.876 19.6634 17.6499C19.6431 17.4237 19.5602 17.2077 19.4241 17.026L16.8083 13.6743" stroke="#272937" stroke-width="1.5" stroke-linecap="round" stroke-linejoin="round" />
<ns0:path d="M14.8192 12.2317L14.5208 11.9859C14.2202 11.7645 13.8567 11.6451 13.4833 11.645C13.2609 11.6449 13.0405 11.6877 12.8342 11.7709L9.125 13.2542" stroke="#272937" stroke-width="1.5" stroke-linecap="round" stroke-linejoin="round" />
<ns0:path d="M6.625 11.8361H8.29167C8.50328 11.8273 8.70976 11.9027 8.86594 12.0457C9.02212 12.1888 9.11527 12.3879 9.125 12.5995V17.947C9.11526 18.1586 9.02214 18.3578 8.86599 18.501C8.70984 18.6442 8.50336 18.7197 8.29167 18.7111H6.625" stroke="#272937" stroke-width="1.5" stroke-linecap="round" stroke-linejoin="round" />
<ns0:path d="M25.375 18.7111H23.7083C23.4966 18.7197 23.2902 18.6442 23.134 18.501C22.9779 18.3578 22.8847 18.1586 22.875 17.947V12.5995C22.8847 12.3879 22.9779 12.1888 23.1341 12.0457C23.2902 11.9027 23.4967 11.8273 23.7083 11.8361H25.375" stroke="#272937" stroke-width="1.5" stroke-linecap="round" stroke-linejoin="round" />
<ns0:path d="M16.0001 20.2051L15.1851 19.3901" stroke="#272937" stroke-width="1.5" stroke-linecap="round" stroke-linejoin="round" />
<ns0:path d="M18.0383 18.9826L16.8149 17.7593" stroke="#272937" stroke-width="1.5" stroke-linecap="round" stroke-linejoin="round" />
</ns0:g>

<text x="40" y="22" font-size="18" font-family="Poppins, Arial" fill="#243D31">TAXBUDDY UMAIR</text>
</svg>